<svg width="258" height="260" viewBox="0 0 258 260" fill="none" xmlns="http://www.w3.org/2000/svg">
<path d="M244.122 177.608C220.171 234.829 156.37 266.885 101.041 258.238C92.038 256.831 67.3559 252.639 45.5032 232.866C3.43537 194.802 -5.56116 119.429 28.3737 66.3119C53.0723 27.652 97.3471 5.73698 139.417 6.8332C148.479 7.06928 183.207 8.52453 213.728 34.0591C218.211 37.8097 228.098 46.722 237.009 60.8608C257.933 94.0611 259.732 140.317 244.122 177.608Z" fill="#8395D7" fill-opacity="0.35"/>
<path d="M1.42144 166.931C5.51088 149.476 18.8834 135.774 35.9072 131.584C47.6113 128.703 58.8403 130.249 68.3315 134.917C71.4795 136.466 75.2204 134.713 76.0926 131.246C84.4827 97.9019 114.011 73.2681 149.153 73.2681C190.823 73.2681 224.603 107.904 224.603 150.629C224.603 151.763 224.581 153.312 224.561 154.799C224.709 157.994 226.07 159.351 228.1 159.691C244.427 161.434 257.257 175.233 257.969 192.254C258.787 211.798 243.273 227.99 224.194 227.99H47.7218C17.5122 227.99 -6.14116 199.209 1.42144 166.931Z" fill="#252762"/>
<path opacity="0.21" d="M15.0891 173.472C18.7404 157.888 30.6803 145.654 45.8804 141.912C56.3306 139.34 66.3566 140.72 74.831 144.888C77.6418 146.271 80.9819 144.706 81.7606 141.611C89.2518 111.839 115.617 89.8438 146.994 89.8438C184.2 89.8438 214.361 120.769 214.361 158.917C214.361 159.93 214.341 161.313 214.324 162.64C214.455 165.493 215.67 166.704 217.484 167.008C232.061 168.564 243.517 180.885 244.152 196.083C244.882 213.533 231.031 227.99 213.996 227.99H56.4292C29.4561 227.99 8.33672 202.292 15.0891 173.472Z" fill="#8395D7"/>
<path d="M35.579 248.899C35.579 250.329 36.7503 251.499 38.1819 251.499H178.94C180.372 251.499 181.543 250.329 181.543 248.899L182.714 168.009C182.714 166.579 181.029 163.786 177.941 163.996L40.3766 160.437C38.5803 160.39 36.8436 161.082 35.5715 162.35C34.2995 163.617 33.6035 165.351 33.646 167.146L35.579 248.899Z" fill="#252762"/>
<path d="M38.1487 246.404C38.1487 247.758 39.2569 248.866 40.6113 248.866H175.546C176.9 248.866 178.008 247.758 178.008 246.404L179.113 172.971C178.983 168.552 175.109 166.964 172.76 167.058L40.9175 163.521C39.6556 163.487 38.4354 163.973 37.5416 164.865C36.6478 165.756 36.1563 166.976 36.1879 168.238L38.1487 246.404Z" fill="#8395D7"/>
<path d="M176.55 211.518C176.549 211.518 176.547 211.518 176.547 211.518C176.346 211.516 176.186 211.352 176.189 211.152L176.277 205.197C176.28 204.999 176.441 204.841 176.637 204.841C176.639 204.841 176.641 204.841 176.641 204.841C176.842 204.844 177.001 205.008 176.998 205.208L176.911 211.163C176.908 211.36 176.747 211.518 176.55 211.518Z" fill="white"/>
<path d="M176.764 196.925C176.764 196.925 176.761 196.925 176.759 196.925C176.56 196.922 176.401 196.758 176.404 196.559L176.738 173.75C176.732 172.395 176.321 171.313 175.516 170.542C174.013 169.103 171.628 169.176 171.528 169.181L129.388 168.051C129.188 168.046 129.031 167.88 129.037 167.68C129.042 167.481 129.195 167.311 129.407 167.329L171.522 168.459C171.784 168.444 174.324 168.4 176.015 170.021C176.967 170.933 177.453 172.189 177.46 173.753L177.125 196.569C177.122 196.767 176.961 196.925 176.764 196.925Z" fill="white"/>
<path d="M24.6842 258.214H189.584C189.872 258.214 190.108 257.978 190.108 257.69V251.631C190.108 251.343 189.872 251.107 189.584 251.107H24.6842C24.3958 251.107 24.1599 251.343 24.1599 251.631V257.69C24.16 257.978 24.3959 258.214 24.6842 258.214Z" fill="#252762"/>
<path d="M96.6895 245.284H44.7364C42.8208 245.284 41.2679 243.731 41.2679 241.816V174.001C41.2679 172.034 42.9029 170.46 44.869 170.535L96.822 172.523C98.6846 172.595 100.158 174.125 100.158 175.989V241.816C100.158 243.731 98.605 245.284 96.6895 245.284Z" fill="#252762"/>
<path opacity="0.51" d="M86.3557 201.712H51.9427C51.6697 201.712 51.4482 201.49 51.4482 201.217V197.633C51.4482 197.36 51.6697 197.138 51.9427 197.138H86.3557C86.6289 197.138 86.8503 197.36 86.8503 197.633V201.217C86.8503 201.49 86.6289 201.712 86.3557 201.712Z" fill="white"/>
<path opacity="0.51" d="M86.4253 209.015H52.0123C51.7392 209.015 51.5178 208.793 51.5178 208.52V204.936C51.5178 204.663 51.7392 204.441 52.0123 204.441H86.4253C86.6985 204.441 86.9198 204.663 86.9198 204.936V208.52C86.9199 208.793 86.6985 209.015 86.4253 209.015Z" fill="white"/>
<path opacity="0.51" d="M86.6327 216.472H52.2197C51.9466 216.472 51.7252 216.25 51.7252 215.977V212.393C51.7252 212.12 51.9466 211.898 52.2197 211.898H86.6327C86.9059 211.898 87.1272 212.12 87.1272 212.393V215.977C87.1272 216.25 86.9059 216.472 86.6327 216.472Z" fill="white"/>
<path opacity="0.51" d="M86.7023 223.775H52.2893C52.0161 223.775 51.7948 223.554 51.7948 223.281V219.696C51.7948 219.423 52.0162 219.202 52.2893 219.202H86.7023C86.9754 219.202 87.1968 219.423 87.1968 219.696V223.281C87.1968 223.554 86.9753 223.775 86.7023 223.775Z" fill="white"/>
<path opacity="0.51" d="M161.827 201.706H111.918C111.645 201.706 111.424 201.485 111.424 201.212V197.627C111.424 197.354 111.645 197.133 111.918 197.133H161.827C162.1 197.133 162.322 197.354 162.322 197.627V201.212C162.322 201.485 162.1 201.706 161.827 201.706Z" fill="white"/>
<path opacity="0.51" d="M161.984 209.015H112.076C111.803 209.015 111.581 208.793 111.581 208.52V204.936C111.581 204.663 111.803 204.441 112.076 204.441H161.984C162.258 204.441 162.479 204.663 162.479 204.936V208.52C162.479 208.793 162.258 209.015 161.984 209.015Z" fill="white"/>
<path opacity="0.51" d="M141.246 216.472H112.076C111.803 216.472 111.581 216.25 111.581 215.977V212.393C111.581 212.12 111.803 211.898 112.076 211.898H141.246C141.519 211.898 141.741 212.12 141.741 212.393V215.977C141.741 216.25 141.519 216.472 141.246 216.472Z" fill="white"/>
<g opacity="0.51">
<path d="M138.443 180.087H137.668C137.283 180.087 136.971 179.775 136.971 179.39V176.74C136.971 175.792 136.202 175.023 135.254 175.023H130.45C129.501 175.023 128.732 175.792 128.732 176.74V179.39C128.732 179.775 128.42 180.087 128.035 180.087H127.26C126.875 180.087 126.563 179.775 126.563 179.39V176.74C126.563 174.594 128.303 172.854 130.45 172.854H135.254C137.4 172.854 139.141 174.594 139.141 176.74V179.39C139.141 179.775 138.828 180.087 138.443 180.087Z" fill="white"/>
<path d="M139.404 180.713H126.299C125.496 180.713 124.845 181.364 124.845 182.167V192.225C124.845 193.028 125.496 193.679 126.299 193.679H139.404C140.207 193.679 140.858 193.028 140.858 192.225V182.167C140.858 181.364 140.207 180.713 139.404 180.713ZM134.727 190.434C134.808 190.773 134.551 191.099 134.203 191.099H131.5C131.152 191.099 130.895 190.773 130.976 190.434L131.607 187.809C130.863 187.364 130.376 186.532 130.426 185.591C130.49 184.372 131.478 183.374 132.696 183.298C134.108 183.211 135.281 184.33 135.281 185.723C135.281 186.609 134.806 187.385 134.096 187.809L134.727 190.434Z" fill="white"/>
</g>
<path d="M176.592 62.6659C176.541 62.6659 176.489 62.6533 176.441 62.6265C176.29 62.5427 176.236 62.3528 176.32 62.2022C176.521 61.8407 176.715 61.4767 176.904 61.1102C176.983 60.9572 177.171 60.8974 177.325 60.976C177.478 61.0549 177.538 61.2433 177.459 61.3967C177.267 61.7686 177.069 62.1382 176.865 62.5052C176.808 62.6079 176.702 62.6659 176.592 62.6659Z" fill="#91B3FA"/>
<path d="M140.074 84.1603C139.889 84.1603 139.705 84.159 139.521 84.1566C139.348 84.1542 139.211 84.0127 139.213 83.8402C139.215 83.6695 139.355 83.5322 139.525 83.5322H139.529C140.337 83.5432 141.152 83.5298 141.958 83.4932C142.119 83.4822 142.277 83.6185 142.284 83.791C142.292 83.9632 142.159 84.109 141.986 84.1169C141.352 84.1456 140.709 84.1603 140.074 84.1603ZM135.556 83.9167C135.544 83.9167 135.533 83.916 135.522 83.9148C134.706 83.8264 133.885 83.7133 133.079 83.5782C132.909 83.5496 132.794 83.3886 132.823 83.2188C132.851 83.0488 133.013 82.9328 133.182 82.9624C133.976 83.0957 134.786 83.2072 135.589 83.2941C135.76 83.3126 135.884 83.4667 135.866 83.6379C135.848 83.7981 135.713 83.9167 135.556 83.9167ZM145.932 83.7493C145.779 83.7493 145.645 83.6364 145.623 83.4808C145.599 83.3101 145.718 83.1521 145.889 83.128C146.688 83.0156 147.494 82.8778 148.284 82.7186C148.451 82.6848 148.617 82.7942 148.652 82.9632C148.685 83.132 148.576 83.2967 148.407 83.3308C147.605 83.4924 146.787 83.632 145.976 83.7463C145.961 83.7484 145.947 83.7493 145.932 83.7493ZM129.245 82.7402C129.218 82.7402 129.191 82.7369 129.164 82.7296C128.373 82.5184 127.578 82.2809 126.801 82.0238C126.638 81.9699 126.549 81.793 126.603 81.6294C126.657 81.466 126.833 81.3775 126.998 81.4312C127.763 81.6843 128.546 81.9184 129.325 82.1266C129.492 82.1711 129.591 82.3421 129.546 82.5086C129.509 82.6482 129.383 82.7402 129.245 82.7402ZM152.202 82.3667C152.068 82.3667 151.945 82.2799 151.904 82.1451C151.854 81.9802 151.947 81.8058 152.112 81.7559C152.885 81.5214 153.66 81.2613 154.416 80.9831C154.577 80.9236 154.757 81.0063 154.817 81.1682C154.876 81.3301 154.793 81.5093 154.632 81.569C153.865 81.8516 153.078 82.1156 152.293 82.3534C152.263 82.3625 152.232 82.3667 152.202 82.3667ZM123.188 80.6114C123.146 80.6114 123.103 80.6029 123.063 80.5849C122.312 80.2542 121.563 79.8972 120.837 79.5243C120.683 79.4457 120.623 79.2572 120.702 79.1039C120.781 78.9512 120.968 78.8901 121.122 78.9689C121.838 79.3363 122.575 79.6877 123.314 80.0136C123.472 80.0832 123.544 80.2676 123.474 80.4251C123.422 80.5419 123.308 80.6114 123.188 80.6114ZM158.185 80.0355C158.069 80.0355 157.957 79.9706 157.903 79.8587C157.829 79.7035 157.894 79.517 158.049 79.442C158.775 79.0923 159.501 78.7158 160.207 78.3228C160.358 78.2393 160.547 78.2933 160.631 78.4438C160.715 78.5944 160.661 78.7847 160.51 78.8685C159.794 79.2673 159.058 79.6496 158.32 80.0047C158.277 80.0258 158.23 80.0355 158.185 80.0355ZM117.534 77.5759C117.476 77.5759 117.417 77.5601 117.365 77.5265C116.676 77.0845 115.991 76.6162 115.33 76.1351C115.191 76.0336 115.16 75.8385 115.261 75.6989C115.363 75.5596 115.558 75.5291 115.698 75.6302C116.349 76.1043 117.023 76.5652 117.702 77.0008C117.848 77.0938 117.89 77.2871 117.797 77.4322C117.737 77.5253 117.636 77.5759 117.534 77.5759ZM163.736 76.8086C163.637 76.8086 163.54 76.7617 163.479 76.6739C163.381 76.5318 163.417 76.3373 163.559 76.2395C164.223 75.7813 164.882 75.2974 165.519 74.8012C165.654 74.6954 165.851 74.7195 165.957 74.8554C166.063 74.9914 166.039 75.1877 165.903 75.2938C165.257 75.7971 164.588 76.2882 163.914 76.7534C163.859 76.7906 163.797 76.8086 163.736 76.8086ZM112.416 73.7051C112.342 73.7051 112.268 73.6793 112.209 73.6268C111.598 73.086 110.993 72.5183 110.411 71.9393C110.288 71.8177 110.288 71.6202 110.409 71.498C110.531 71.376 110.729 71.3751 110.851 71.4968C111.424 72.0668 112.021 72.6263 112.623 73.1592C112.752 73.2735 112.764 73.4707 112.649 73.6C112.588 73.6695 112.502 73.7051 112.416 73.7051ZM168.731 72.768C168.648 72.768 168.565 72.7351 168.504 72.6702C168.385 72.5447 168.391 72.3471 168.516 72.2287C169.104 71.6745 169.682 71.0968 170.235 70.5112C170.353 70.3862 170.551 70.3807 170.676 70.4984C170.802 70.617 170.807 70.8145 170.689 70.9399C170.128 71.534 169.541 72.1205 168.945 72.683C168.885 72.7397 168.807 72.768 168.731 72.768ZM107.945 69.0961C107.856 69.0961 107.767 69.0577 107.705 68.9836C107.182 68.3556 106.67 67.7028 106.182 67.0437C106.08 66.905 106.11 66.7097 106.248 66.6069C106.388 66.5045 106.582 66.5344 106.685 66.6725C107.165 67.3221 107.669 67.9654 108.185 68.5842C108.295 68.7165 108.277 68.9135 108.145 69.0238C108.086 69.0722 108.016 69.0961 107.945 69.0961ZM173.051 68.0205C172.984 68.0205 172.917 67.9992 172.86 67.9547C172.724 67.8489 172.7 67.6526 172.805 67.5167C173.303 66.878 173.786 66.2186 174.241 65.5567C174.339 65.4146 174.534 65.3787 174.675 65.4762C174.817 65.574 174.853 65.7686 174.756 65.9104C174.293 66.5825 173.803 67.252 173.298 67.9002C173.236 67.9791 173.144 68.0205 173.051 68.0205ZM104.226 63.8626C104.12 63.8626 104.016 63.8086 103.958 63.7111C103.535 63.0065 103.128 62.2828 102.751 61.56C102.671 61.4073 102.73 61.2186 102.883 61.1386C103.035 61.0591 103.224 61.1179 103.304 61.271C103.676 61.9828 104.076 62.6955 104.493 63.3897C104.582 63.5375 104.534 63.7292 104.386 63.818C104.336 63.8482 104.28 63.8626 104.226 63.8626ZM101.356 58.1191C101.233 58.1191 101.116 58.0457 101.066 57.9243C100.758 57.1636 100.468 56.3859 100.206 55.6129C100.151 55.4498 100.239 55.2724 100.402 55.2172C100.564 55.162 100.742 55.2496 100.798 55.413C101.056 56.1741 101.34 56.94 101.645 57.6896C101.71 57.8493 101.633 58.0313 101.473 58.0963C101.435 58.1118 101.395 58.1191 101.356 58.1191Z" fill="#8395D7"/>
<path d="M99.4022 51.9849C99.2604 51.9849 99.1324 51.888 99.0985 51.7441C99.0028 51.3355 98.9129 50.9261 98.8293 50.5158C98.7949 50.347 98.9041 50.182 99.0729 50.1479C99.2415 50.1138 99.4068 50.222 99.4409 50.3915C99.5232 50.7958 99.6119 51.199 99.7064 51.6015C99.7458 51.7695 99.6415 51.9374 99.4738 51.9767C99.4498 51.9821 99.426 51.9849 99.4022 51.9849Z" fill="#91B3FA"/>
<path d="M104.695 20.15C104.638 20.15 104.581 20.1344 104.529 20.1018C104.383 20.01 104.339 19.817 104.431 19.6713C104.654 19.3177 104.883 18.9662 105.117 18.6178C105.213 18.4748 105.407 18.4361 105.55 18.5328C105.694 18.6291 105.731 18.823 105.635 18.966C105.404 19.3095 105.179 19.6556 104.959 20.0043C104.9 20.0984 104.799 20.15 104.695 20.15Z" fill="#8395D7"/>
<path d="M180.144 30.608C180.008 30.608 179.884 30.5199 179.844 30.3836C179.605 29.5699 179.338 28.7532 179.05 27.9557C178.991 27.7938 179.075 27.6148 179.237 27.5561C179.399 27.4969 179.578 27.5814 179.637 27.7435C179.93 28.5527 180.201 29.3818 180.443 30.208C180.492 30.3736 180.397 30.547 180.231 30.5955C180.202 30.604 180.172 30.608 180.144 30.608ZM177.724 24.3068C177.608 24.3068 177.496 24.2415 177.443 24.13C177.075 23.3642 176.679 22.6015 176.265 21.8631C176.181 21.7128 176.235 21.5226 176.385 21.4381C176.536 21.3546 176.726 21.4079 176.81 21.5582C177.229 22.3075 177.632 23.0819 178.006 23.8592C178.08 24.0147 178.015 24.2013 177.859 24.2759C177.816 24.2971 177.77 24.3068 177.724 24.3068ZM174.315 18.4811C174.217 18.4811 174.12 18.4347 174.059 18.3478C173.574 17.6543 173.059 16.9656 172.531 16.3013C172.423 16.1663 172.446 15.9699 172.58 15.8627C172.716 15.7547 172.912 15.7776 173.019 15.9124C173.555 16.587 174.078 17.2857 174.571 17.99C174.669 18.1311 174.635 18.3257 174.494 18.4247C174.44 18.4627 174.377 18.4811 174.315 18.4811ZM107.881 15.7565C107.811 15.7565 107.74 15.733 107.682 15.6845C107.549 15.5745 107.531 15.3775 107.641 15.2449C108.189 14.5852 108.766 13.9313 109.357 13.3017C109.475 13.1758 109.672 13.1697 109.798 13.2877C109.924 13.4061 109.93 13.6036 109.812 13.7292C109.23 14.3495 108.661 14.9937 108.121 15.6437C108.059 15.7181 107.971 15.7565 107.881 15.7565ZM170.013 13.2796C169.932 13.2796 169.85 13.2479 169.789 13.1848C169.201 12.5785 168.584 11.9807 167.956 11.4078C167.828 11.2916 167.819 11.0941 167.936 10.9667C168.052 10.8386 168.249 10.8298 168.377 10.9463C169.014 11.528 169.64 12.1346 170.237 12.7501C170.357 12.8739 170.354 13.0714 170.23 13.1916C170.17 13.2503 170.091 13.2796 170.013 13.2796ZM112.594 10.9251C112.507 10.9251 112.421 10.8889 112.359 10.8184C112.246 10.6885 112.259 10.4913 112.389 10.3779C113.038 9.81058 113.713 9.25663 114.393 8.73133C114.531 8.62646 114.726 8.65177 114.831 8.78771C114.936 8.9243 114.911 9.12032 114.775 9.22575C114.104 9.74307 113.44 10.2888 112.8 10.8479C112.741 10.8998 112.667 10.9251 112.594 10.9251ZM164.94 8.83138C164.876 8.83138 164.811 8.81126 164.754 8.76981C164.074 8.26408 163.369 7.77356 162.659 7.31141C162.515 7.21747 162.474 7.02395 162.568 6.87939C162.662 6.7352 162.854 6.69403 163 6.78824C163.72 7.25744 164.436 7.75529 165.127 8.26862C165.265 8.37136 165.294 8.56711 165.191 8.70546C165.13 8.7878 165.036 8.83138 164.94 8.83138ZM118.019 6.90499C117.915 6.90499 117.813 6.85287 117.754 6.75773C117.663 6.61141 117.707 6.41901 117.854 6.32785C118.584 5.87331 119.339 5.4349 120.097 5.02551C120.249 4.94289 120.438 5.00047 120.52 5.15171C120.602 5.3035 120.545 5.49285 120.394 5.57482C119.647 5.97818 118.903 6.40982 118.183 6.85769C118.132 6.88978 118.075 6.90499 118.019 6.90499ZM159.215 5.26122C159.167 5.26122 159.118 5.25028 159.072 5.22645C158.32 4.83839 157.544 4.46859 156.768 4.12717C156.61 4.058 156.538 3.87384 156.608 3.71593C156.677 3.55802 156.861 3.48578 157.019 3.55588C157.807 3.90222 158.594 4.27748 159.358 4.67166C159.512 4.75057 159.572 4.93899 159.493 5.09209C159.437 5.19965 159.328 5.26122 159.215 5.26122ZM124.021 3.81403C123.898 3.81403 123.782 3.7418 123.732 3.62172C123.666 3.4626 123.742 3.28002 123.901 3.21354C124.694 2.88399 125.51 2.57391 126.325 2.29285C126.489 2.23703 126.666 2.32299 126.722 2.4861C126.778 2.6492 126.692 2.82696 126.529 2.88306C125.725 3.16013 124.922 3.46529 124.141 3.7903C124.101 3.80643 124.06 3.81403 124.021 3.81403ZM152.987 2.66533C152.955 2.66533 152.922 2.66042 152.891 2.65013C152.085 2.38882 151.26 2.14922 150.438 1.93771C150.271 1.89468 150.171 1.72435 150.214 1.55753C150.257 1.39044 150.429 1.2902 150.594 1.33285C151.428 1.54779 152.265 1.79102 153.083 2.05631C153.247 2.10935 153.337 2.28553 153.284 2.44956C153.241 2.58151 153.119 2.66533 152.987 2.66533ZM130.443 1.73798C130.301 1.73798 130.173 1.64108 130.139 1.49744C130.1 1.32979 130.204 1.16149 130.372 1.1219C131.211 0.924021 132.066 0.750251 132.913 0.605505C133.087 0.578058 133.244 0.690535 133.273 0.86041C133.302 1.03056 133.188 1.19182 133.018 1.22075C132.184 1.36345 131.342 1.53472 130.515 1.72982C130.491 1.73529 130.467 1.73798 130.443 1.73798ZM146.421 1.10818C146.405 1.10818 146.389 1.10697 146.373 1.10447C145.535 0.975857 144.682 0.871909 143.837 0.795039C143.666 0.779461 143.539 0.62739 143.555 0.455752C143.571 0.284115 143.719 0.156987 143.894 0.173121C144.751 0.251197 145.617 0.356997 146.468 0.487463C146.638 0.513705 146.755 0.672824 146.729 0.843256C146.706 0.997831 146.572 1.10818 146.421 1.10818ZM137.117 0.725217C136.954 0.725217 136.817 0.599293 136.806 0.434982C136.793 0.262788 136.923 0.113682 137.095 0.101813C137.952 0.0414481 138.824 0.00732541 139.686 0H139.688C139.86 0 139.999 0.138071 140.001 0.309429C140.002 0.481994 139.864 0.622845 139.691 0.624329C138.842 0.631654 137.983 0.665222 137.139 0.724289C137.131 0.724938 137.124 0.725217 137.117 0.725217Z" fill="#8395D7"/>
<path d="M181.33 35.9228C181.179 35.9228 181.046 35.8128 181.022 35.6588C180.959 35.2512 180.889 34.8442 180.813 34.4379C180.782 34.2684 180.893 34.1053 181.063 34.0736C181.231 34.0443 181.395 34.1541 181.427 34.3233C181.504 34.7357 181.575 35.1488 181.639 35.5626C181.666 35.733 181.549 35.8928 181.379 35.9193C181.362 35.9216 181.346 35.9228 181.33 35.9228Z" fill="#8395D7"/>
<path d="M172.135 41.1463C172.152 40.9331 172.031 40.7326 171.835 40.6474L166.239 38.2164C165.807 35.4 164.922 32.6322 163.574 30.0279L166.663 24.7703C166.771 24.5858 166.75 24.3531 166.611 24.1905L161.854 18.6292C161.715 18.4666 161.488 18.4102 161.289 18.4886L155.617 20.7252C153.253 18.9905 150.655 17.6878 147.94 16.8245L146.405 10.9192C146.351 10.7122 146.172 10.5622 145.959 10.5456L138.662 9.97711C138.449 9.96051 138.249 10.081 138.163 10.2772L135.732 15.8734C132.916 16.3057 130.148 17.1903 127.544 18.538L122.286 15.4497C122.102 15.3414 121.869 15.3619 121.706 15.501L116.145 20.2586C115.982 20.3976 115.926 20.6244 116.004 20.8234L118.241 26.4959C116.506 28.8601 115.204 31.4572 114.34 34.1727L108.435 35.7077C108.228 35.7615 108.078 35.9408 108.061 36.1539L107.493 43.4503C107.476 43.6636 107.597 43.8639 107.793 43.9491L113.389 46.3801C113.821 49.1965 114.706 51.9643 116.054 54.5686L112.965 59.8263C112.857 60.0107 112.878 60.2435 113.017 60.406L117.774 65.9675C117.913 66.1301 118.14 66.1864 118.339 66.1079L124.011 63.8713C126.376 65.6062 128.973 66.9088 131.688 67.772L133.223 73.6772C133.277 73.8843 133.456 74.0343 133.67 74.0509L140.966 74.6194C141.179 74.636 141.38 74.5155 141.465 74.3193L143.896 68.7232C146.712 68.2909 149.48 67.4063 152.084 66.0585L157.342 69.1469C157.526 69.2552 157.759 69.2346 157.922 69.0956L163.483 64.3381C163.646 64.1991 163.702 63.9723 163.624 63.7733L161.387 58.1008C163.122 55.7366 164.425 53.1393 165.288 50.4239L171.193 48.8889C171.4 48.8352 171.55 48.656 171.567 48.4426L172.135 41.1463Z" fill="#8395D7"/>
<path opacity="0.7" d="M139.799 49.267C138.371 49.2672 136.98 48.8274 135.79 47.9854C132.654 45.7664 131.908 41.41 134.127 38.2742C135.202 36.7551 136.805 35.7458 138.639 35.4318C140.473 35.1187 142.32 35.5373 143.839 36.6119C145.358 37.6872 146.367 39.2892 146.681 41.1232C146.995 42.9575 146.576 44.8043 145.501 46.3231C144.426 47.8422 142.824 48.8516 140.99 49.1655C140.592 49.2334 140.194 49.267 139.799 49.267ZM139.827 36.2667C139.485 36.2667 139.141 36.296 138.797 36.3548C137.209 36.6264 135.822 37.5001 134.892 38.815C132.971 41.5291 133.616 45.3002 136.331 47.2209C137.645 48.1516 139.243 48.5135 140.832 48.2424C142.419 47.9708 143.806 47.0971 144.736 45.7822C145.667 44.4673 146.03 42.869 145.758 41.2813C145.486 39.6936 144.613 38.3068 143.298 37.3764C142.268 36.6474 141.064 36.2667 139.827 36.2667Z" fill="white"/>
<path opacity="0.7" d="M139.688 60.4282C139.211 60.4282 138.731 60.4095 138.251 60.372C133.423 59.9961 129.031 57.7624 125.883 54.0829C123.049 50.77 121.529 46.6419 121.529 42.3285C121.529 41.851 121.548 41.3718 121.585 40.8907C121.962 36.0633 124.195 31.6713 127.875 28.5236C131.554 25.3763 136.239 23.8498 141.067 24.226C145.894 24.6019 150.287 26.8356 153.434 30.5152C154.274 31.4974 155.01 32.5678 155.619 33.6961L154.795 34.1411C154.217 33.0711 153.52 32.0559 152.722 31.124C149.738 27.6343 145.572 25.5162 140.994 25.1595C136.416 24.8058 131.973 26.2506 128.484 29.2351C124.994 32.2202 122.876 36.3855 122.519 40.9635C122.484 41.4195 122.466 41.8741 122.466 42.3269C122.466 46.4174 123.907 50.3324 126.595 53.4743C129.58 56.9637 133.745 59.0818 138.323 59.4385C142.904 59.7955 147.345 58.3477 150.834 55.3629C153.202 53.3368 154.974 50.7122 155.958 47.7732L156.846 48.0707C155.808 51.1705 153.94 53.9383 151.442 56.0744C148.129 58.9085 144.001 60.4282 139.688 60.4282Z" fill="white"/>
<path d="M211.803 72.9132C211.749 72.9132 211.695 72.8992 211.645 72.8696C211.496 72.7818 211.447 72.5903 211.535 72.4419C211.745 72.0877 211.945 71.7258 212.131 71.3661C212.21 71.213 212.398 71.1533 212.552 71.2319C212.705 71.3108 212.765 71.4992 212.686 71.6526C212.495 72.023 212.288 72.3955 212.072 72.7601C212.014 72.8587 211.91 72.9132 211.803 72.9132Z" fill="#8395D7"/>
<path d="M191.656 83.3615C191.647 83.3615 191.639 83.3612 191.631 83.3606C190.784 83.2938 189.933 83.1767 189.103 83.0128C188.934 82.9792 188.824 82.8149 188.857 82.646C188.891 82.4768 189.055 82.3664 189.223 82.4C190.031 82.5598 190.857 82.6735 191.68 82.7381C191.852 82.7518 191.98 82.9021 191.967 83.0738C191.954 83.2374 191.817 83.3615 191.656 83.3615ZM195.739 83.2954C195.582 83.2954 195.446 83.1774 195.428 83.0179C195.409 82.8466 195.533 82.692 195.704 82.6728C196.526 82.5807 197.348 82.4399 198.148 82.254C198.314 82.2132 198.483 82.3189 198.522 82.4872C198.562 82.6552 198.457 82.8229 198.289 82.8619C197.465 83.0536 196.619 83.1988 195.774 83.2935C195.762 83.2947 195.75 83.2954 195.739 83.2954ZM185.25 81.8494C185.21 81.8494 185.171 81.8421 185.132 81.8265C184.347 81.5076 183.572 81.1381 182.828 80.7284C182.678 80.6452 182.622 80.4553 182.706 80.3044C182.789 80.1535 182.978 80.0989 183.13 80.1815C183.852 80.5793 184.605 80.9382 185.367 81.2479C185.527 81.3128 185.604 81.4951 185.539 81.6549C185.49 81.776 185.373 81.8494 185.25 81.8494ZM202.091 81.5693C201.971 81.5693 201.857 81.5004 201.805 81.3846C201.735 81.2269 201.805 81.0425 201.963 80.9721C202.715 80.6359 203.456 80.2512 204.163 79.8289C204.31 79.7401 204.503 79.7886 204.591 79.9368C204.68 80.085 204.631 80.2765 204.483 80.3648C203.755 80.7999 202.993 81.1959 202.218 81.5422C202.176 81.5607 202.133 81.5693 202.091 81.5693ZM179.609 78.4618C179.539 78.4618 179.468 78.4381 179.41 78.3893C178.761 77.8476 178.135 77.2598 177.55 76.6428C177.431 76.5175 177.436 76.3199 177.561 76.2013C177.687 76.083 177.885 76.0879 178.003 76.2129C178.571 76.8129 179.179 77.3836 179.81 77.9101C179.942 78.0204 179.96 78.2174 179.849 78.3497C179.788 78.4237 179.699 78.4618 179.609 78.4618ZM207.615 77.9911C207.529 77.9911 207.443 77.9558 207.382 77.8869C207.267 77.7583 207.278 77.5607 207.407 77.4461L207.59 77.2806C208.139 76.7797 208.667 76.2453 209.16 75.692C209.274 75.5624 209.471 75.5509 209.6 75.6661C209.729 75.7807 209.741 75.9779 209.626 76.1067C209.12 76.6765 208.576 77.2267 208.011 77.7422L207.823 77.9119C207.763 77.9649 207.689 77.9911 207.615 77.9911ZM175.257 73.5253C175.155 73.5253 175.054 73.4747 174.994 73.3814C174.537 72.6674 174.117 71.9184 173.746 71.1544C173.671 70.9993 173.736 70.8126 173.891 70.7373C174.046 70.6623 174.232 70.7269 174.308 70.8818C174.668 71.6235 175.076 72.3512 175.52 73.0447C175.613 73.1898 175.571 73.3828 175.425 73.4758C175.373 73.5095 175.315 73.5253 175.257 73.5253Z" fill="#8395D7"/>
<path d="M172.602 67.489C172.464 67.489 172.338 67.3966 172.301 67.2567C172.193 66.8509 172.096 66.4361 172.012 66.0242C171.978 65.8553 172.087 65.6907 172.256 65.6563C172.425 65.6219 172.59 65.7306 172.624 65.8998C172.705 66.2998 172.8 66.7025 172.904 67.097C172.948 67.2635 172.849 67.4346 172.682 67.4787C172.655 67.4857 172.629 67.489 172.602 67.489Z" fill="#8395D7"/>
<path d="M175.173 50.5473C175.116 50.5473 175.059 50.5318 175.007 50.4991C174.861 50.4073 174.818 50.2147 174.91 50.0687C175.134 49.7126 175.372 49.3589 175.616 49.0173C175.716 48.8773 175.911 48.8447 176.051 48.9447C176.192 49.0451 176.224 49.2399 176.124 49.3801C175.886 49.712 175.656 50.0557 175.438 50.4017C175.379 50.4958 175.277 50.5473 175.173 50.5473Z" fill="#8395D7"/>
<path d="M213.095 53.5836C212.973 53.5836 212.858 53.5123 212.807 53.3933C212.491 52.6476 212.127 51.9123 211.725 51.2078C211.64 51.0581 211.692 50.8673 211.842 50.7819C211.991 50.6965 212.182 50.7489 212.268 50.8986C212.681 51.6242 213.056 52.3814 213.382 53.1494C213.45 53.3079 213.376 53.4914 213.217 53.5587C213.177 53.5756 213.136 53.5836 213.095 53.5836ZM209.688 48.076C209.6 48.076 209.513 48.0388 209.451 47.9663C209.292 47.7791 209.129 47.5941 208.961 47.4109C208.58 46.9935 208.179 46.5865 207.766 46.2012C207.64 46.0832 207.634 45.8856 207.752 45.7598C207.87 45.6336 208.067 45.6272 208.193 45.7451C208.617 46.1417 209.03 46.5607 209.422 46.9902C209.594 47.1783 209.762 47.3688 209.926 47.5615C210.038 47.6929 210.022 47.8898 209.891 48.0016C209.832 48.0516 209.76 48.076 209.688 48.076ZM178.503 46.4749C178.42 46.4749 178.338 46.4426 178.277 46.3783C178.158 46.2533 178.162 46.0558 178.287 45.9368C178.414 45.8163 178.541 45.6969 178.671 45.5786C179.158 45.1335 179.672 44.7058 180.197 44.3073C180.334 44.2027 180.53 44.2292 180.634 44.367C180.738 44.5042 180.712 44.6999 180.574 44.8042C180.064 45.1917 179.565 45.6072 179.092 46.0395C178.966 46.1548 178.841 46.2713 178.718 46.3886C178.657 46.4462 178.58 46.4749 178.503 46.4749ZM204.801 43.8275C204.744 43.8275 204.686 43.812 204.635 43.7794C203.949 43.3462 203.232 42.949 202.502 42.5984C202.347 42.5237 202.281 42.3374 202.356 42.1819C202.43 42.0264 202.616 41.9599 202.772 42.0356C203.524 42.3966 204.263 42.8057 204.968 43.2513C205.114 43.3437 205.157 43.5364 205.065 43.6821C205.006 43.776 204.905 43.8275 204.801 43.8275ZM183.799 42.7492C183.684 42.7492 183.574 42.6858 183.52 42.5761C183.443 42.4215 183.506 42.2344 183.66 42.1575C184.406 41.7868 185.183 41.4554 185.97 41.1719C186.133 41.114 186.311 41.1978 186.37 41.3601C186.428 41.5223 186.344 41.7012 186.182 41.7595C185.417 42.0348 184.662 42.3567 183.938 42.7167C183.893 42.7389 183.846 42.7492 183.799 42.7492ZM198.869 41.2381C198.842 41.2381 198.815 41.2347 198.788 41.2277C198.005 41.0198 197.202 40.8551 196.399 40.7384C196.228 40.7137 196.11 40.5551 196.135 40.3847C196.16 40.2137 196.317 40.0914 196.489 40.1207C197.315 40.2408 198.142 40.41 198.949 40.624C199.115 40.6683 199.215 40.8392 199.17 41.006C199.133 41.1457 199.007 41.2381 198.869 41.2381ZM189.968 40.7814C189.817 40.7814 189.684 40.6717 189.66 40.518C189.633 40.3476 189.749 40.1878 189.919 40.161C190.742 40.0309 191.582 39.947 192.418 39.9117C192.591 39.9081 192.736 40.0379 192.743 40.2105C192.75 40.3827 192.616 40.5281 192.444 40.5355C191.632 40.5696 190.816 40.6513 190.017 40.7775C190.001 40.7802 189.984 40.7814 189.968 40.7814Z" fill="#8395D7"/>
<path d="M214.54 58.6494C214.388 58.6494 214.256 58.5394 214.231 58.3855C214.169 57.9821 214.093 57.5755 214.007 57.1764C213.971 57.0078 214.078 56.8416 214.246 56.8054C214.418 56.7691 214.581 56.8764 214.617 57.0447C214.706 57.4553 214.784 57.8742 214.848 58.2891C214.875 58.4595 214.759 58.6192 214.588 58.6458C214.572 58.6482 214.556 58.6494 214.54 58.6494Z" fill="#8395D7"/>
<path d="M209.817 61.1806C209.825 61.0711 209.763 60.9681 209.663 60.9244L206.788 59.6756C206.566 58.2289 206.111 56.8071 205.419 55.4693L207.005 52.7686C207.061 52.6739 207.051 52.5543 206.979 52.4707L204.535 49.6139C204.464 49.5305 204.347 49.5015 204.245 49.5418L201.331 50.6908C200.117 49.7997 198.783 49.1305 197.388 48.687L196.599 45.6536C196.572 45.5473 196.48 45.4703 196.37 45.4617L192.622 45.1697C192.512 45.1612 192.41 45.223 192.366 45.3238L191.117 48.1985C189.67 48.4205 188.249 48.8749 186.911 49.5673L184.21 47.9808C184.115 47.9251 183.996 47.9358 183.912 48.0072L181.056 50.4511C180.972 50.5225 180.943 50.6389 180.983 50.7412L182.132 53.655C181.241 54.8695 180.572 56.2036 180.129 57.5985L177.095 58.387C176.989 58.4146 176.912 58.5067 176.903 58.6162L176.611 62.3643C176.603 62.4738 176.665 62.5767 176.765 62.6205L179.64 63.8693C179.862 65.316 180.316 66.7378 181.009 68.0755L179.422 70.7763C179.367 70.871 179.377 70.9906 179.449 71.074L181.892 73.9309C181.964 74.0144 182.08 74.0433 182.183 74.0031L185.097 72.8541C186.311 73.7453 187.645 74.4144 189.04 74.8578L189.828 77.8912C189.856 77.9976 189.948 78.0746 190.058 78.0833L193.806 78.3752C193.915 78.3838 194.018 78.3219 194.062 78.2211L195.311 75.3465C196.757 75.1244 198.179 74.67 199.517 73.9777L202.218 75.5641C202.312 75.6197 202.432 75.6091 202.516 75.5377L205.372 73.094C205.456 73.0225 205.485 72.906 205.444 72.8039L204.295 69.89C205.187 68.6756 205.856 67.3414 206.299 65.9465L209.333 65.1581C209.439 65.1304 209.516 65.0385 209.525 64.9289L209.817 61.1806Z" fill="#8395D7"/>
<path opacity="0.7" d="M193.206 65.5797C192.425 65.5797 191.665 65.3394 191.015 64.8794C189.302 63.667 188.895 61.2867 190.107 59.5734C190.694 58.7433 191.57 58.1917 192.572 58.0204C193.574 57.8488 194.583 58.078 195.413 58.6652C196.243 59.2526 196.794 60.1279 196.966 61.13C197.137 62.1323 196.908 63.1414 196.321 63.9712C195.733 64.8013 194.858 65.3528 193.856 65.5241C193.639 65.5614 193.422 65.5797 193.206 65.5797ZM193.218 58.9032C192.317 58.9032 191.43 59.3249 190.871 60.1142C189.957 61.4061 190.264 63.2008 191.556 64.1148C192.182 64.5577 192.944 64.7306 193.698 64.601C194.454 64.4718 195.114 64.056 195.556 63.4303C195.999 62.8044 196.172 62.0435 196.043 61.2881C195.913 60.5324 195.497 59.8723 194.872 59.4296C194.369 59.074 193.791 58.9032 193.218 58.9032Z" fill="white"/>
<path opacity="0.7" d="M193.149 71.3131C192.898 71.3131 192.646 71.3033 192.393 71.2835C189.852 71.0856 187.541 69.9101 185.885 67.9737C184.349 66.1793 183.598 63.9739 183.598 61.779C183.598 59.0856 184.73 56.4074 186.933 54.5234C190.93 51.1036 196.964 51.5739 200.383 55.5715C200.41 55.6026 200.436 55.6343 200.463 55.6657C200.833 56.1108 201.163 56.5883 201.446 57.0885C201.447 57.0906 201.448 57.0925 201.449 57.0944C201.453 57.102 201.458 57.1093 201.462 57.1166C201.469 57.1297 201.476 57.1429 201.484 57.1556C201.488 57.163 201.492 57.1703 201.496 57.1773C201.508 57.1998 201.52 57.2227 201.532 57.2452L200.709 57.6903C200.419 57.155 200.07 56.6471 199.671 56.1801C197.488 53.6278 194.122 52.6708 191.064 53.4229C189.803 53.7333 188.594 54.3347 187.541 55.235C185.555 56.9343 184.535 59.3494 184.534 61.7784C184.534 63.7579 185.212 65.7468 186.596 67.3652C189.68 70.9695 195.121 71.3942 198.726 68.3103C199.911 67.2966 200.798 65.9833 201.29 64.5124L202.178 64.81C201.632 66.4416 200.649 67.8978 199.335 69.0219C197.592 70.5131 195.419 71.3131 193.149 71.3131Z" fill="white"/>
<path d="M132.36 104.806C133.13 104.085 134.17 103.727 135.221 103.821C146.457 104.831 167.421 99.4192 181.122 85.4006C182.073 84.4271 183.807 84.9774 184.898 85.7923C200.135 97.1806 225.393 99.5389 234.161 100.021C235.975 100.121 237.446 101.528 237.634 103.335C245.607 180.348 195.464 208.255 185.065 213.181C183.928 213.72 182.59 213.642 181.522 212.977C129.69 180.692 131.907 138.706 131.19 107.596C131.166 106.542 131.591 105.527 132.36 104.806Z" fill="#FF4E42"/>
<path opacity="0.61" d="M183.662 207.587C183.43 207.587 183.199 207.522 182.997 207.394C163.126 194.691 150.175 179.505 143.404 160.968C137.356 144.412 137.06 127.553 136.799 112.679L136.763 110.696C136.757 110.365 136.881 110.053 137.113 109.817C137.346 109.579 137.66 109.448 137.995 109.448H137.995C150.301 109.448 168.772 104.014 182.319 91.8751C182.735 91.5023 183.351 91.4576 183.817 91.767C198.703 101.644 219.936 104.52 231.268 105.355C231.87 105.399 232.346 105.869 232.399 106.473C235.033 136.522 228.783 161.932 213.822 181.998C202.649 196.983 189.399 204.791 184.221 207.453C184.046 207.543 183.854 207.587 183.662 207.587ZM183.99 207.004C189.137 204.358 202.307 196.597 213.418 181.696C228.302 161.733 234.519 136.439 231.897 106.517C231.865 106.161 231.585 105.884 231.231 105.858C219.849 105.019 198.519 102.128 183.539 92.1872C183.264 92.0049 182.901 92.0311 182.656 92.251C169.01 104.479 150.398 109.953 138.006 109.953H138.006C137.796 109.953 137.611 110.03 137.473 110.171C137.337 110.309 137.264 110.492 137.268 110.686L137.303 112.67C137.564 127.504 137.859 144.318 143.878 160.795C150.61 179.224 163.495 194.328 183.269 206.968C183.486 207.107 183.762 207.121 183.99 207.004Z" fill="#FFDDDB"/>
<path opacity="0.61" d="M201.78 133.877H199.436C198.272 133.877 197.329 132.934 197.329 131.77V123.758C197.329 120.891 195.004 118.566 192.136 118.566H177.613C174.745 118.566 172.42 120.891 172.42 123.758V131.77C172.42 132.934 171.477 133.877 170.313 133.877H167.969C166.805 133.877 165.862 132.934 165.862 131.77V123.758C165.862 117.268 171.123 112.007 177.613 112.007H192.136C198.626 112.007 203.887 117.268 203.887 123.758V131.77C203.887 132.934 202.944 133.877 201.78 133.877Z" fill="#FFDDDB"/>
<path opacity="0.61" d="M204.685 135.768H165.064C162.636 135.768 160.668 137.736 160.668 140.164V170.571C160.668 172.999 162.636 174.968 165.064 174.968H204.685C207.113 174.968 209.081 172.999 209.081 170.571V140.164C209.081 137.736 207.113 135.768 204.685 135.768ZM190.544 165.157C190.79 166.181 190.013 167.166 188.96 167.166H180.79C179.736 167.166 178.96 166.181 179.206 165.157L181.112 157.221C178.862 155.875 177.391 153.361 177.541 150.515C177.736 146.83 180.722 143.813 184.406 143.584C188.674 143.319 192.219 146.702 192.219 150.913C192.219 153.594 190.782 155.938 188.637 157.221L190.544 165.157Z" fill="#FFDDDB"/>
<path d="M32.9995 125.827C32.9995 125.827 36.2085 125.997 36.6021 132.599C36.6021 132.599 29.1609 139.269 19.1095 140.857C18.3549 140.976 20.1644 135.706 20.4364 134.992C21.7308 131.595 25.8071 129.408 32.9995 125.827Z" fill="#09005D"/>
<path d="M69.1396 118.065H62.3678C62.3678 118.065 41.5834 95.1103 27.9515 92.7944C27.9515 92.7944 18.4623 104.907 28.4568 127.54C29.2609 129.36 31.5095 130.169 33.1868 129.098C33.6885 128.777 34.0487 128.348 34.2675 127.81L33.4639 108.485C33.4639 108.485 51.193 123.991 54.2747 126.984C57.3563 129.976 73.0205 128.152 69.1396 118.065Z" fill="#8395D7"/>
<path d="M3.67074 166.258C6.50846 163.772 11.0299 160.982 17.5572 160.182L19.7647 161.532C19.7647 161.532 18.357 163.608 15.7855 165.801C13.4222 167.174 9.77271 169.033 6.74713 169.436C3.80566 169.828 3.37188 168.051 3.67074 166.258Z" fill="#09005D"/>
<path d="M20.4364 134.992C22.1846 135.558 22.9536 138.035 27.3895 136.397C31.6814 134.812 34.8718 132.769 36.5133 131.59C36.5499 131.91 36.5808 132.243 36.602 132.599C36.602 132.599 28.7561 140.062 18.7047 141.649C17.9501 141.769 17.352 141.015 17.6241 140.301C18.1121 139.021 18.9922 137.078 20.4364 134.992Z" fill="#8395D7"/>
<path d="M1.53302 168.382C2.09244 167.746 2.80644 167.016 3.67084 166.258C3.37189 168.05 3.80575 169.828 6.74732 169.436C9.77281 169.033 13.4223 167.174 15.7857 165.801C12.8235 168.328 8.31654 171.009 2.62803 170.852C1.36445 170.816 0.698111 169.331 1.53302 168.382Z" fill="#8395D7"/>
<path d="M68.8918 122.964L37.1801 123.308C37.1801 123.308 19.0704 138.291 15.7856 161.138C15.7856 161.138 15.2403 162.818 18.5139 163.106C18.5139 163.106 29.4629 155.955 36.6021 143.312C45.3558 127.809 62.6981 134.788 62.6981 134.788C71.0298 136.626 77.6612 135.942 82.5141 128.474L68.8918 122.964Z" fill="#8395D7"/>
<path d="M68.1429 97.4189C68.1429 97.4189 64.729 114.528 48.0023 121.296L42.0524 120.595L40.6484 122.833L54.605 123.278C54.605 123.278 66.5349 118.553 72.8558 105.677C73.0646 105.252 76.5453 98.0651 68.1429 97.4189Z" fill="url(#paint0_linear_1_565)"/>
<path d="M66.3136 122.685C66.3136 122.685 70.1956 112.132 71.03 101.878C71.03 101.878 68.1899 99.4375 66.4148 98.3845C65.84 98.0434 65.6229 97.3222 65.9135 96.7202C67.2186 94.0166 75.1113 83.4006 75.7024 83.2531C78.9159 82.4511 92.0951 76.1848 101.377 88.8811C105.361 94.33 100.587 111.103 82.5142 128.474C76.6988 129.421 71.262 127.745 66.3136 122.685Z" fill="#FF4E42"/>
<path d="M81.2724 104.19C81.2724 104.19 70.4867 116.961 56.6971 118.828C56.6971 118.828 53.1334 115.579 50.4833 116.739C47.8333 117.899 44.1996 123.019 44.1996 123.019H61.9054C61.9054 123.019 78.6469 122.429 87.0126 112.277C86.3395 108.725 84.3235 106.603 81.2724 104.19Z" fill="url(#paint1_linear_1_565)"/>
<path d="M87.5643 74.2959L89.9242 82.1668C90.0324 82.5274 89.8988 82.918 89.5882 83.1307C88.452 83.9088 85.4824 85.4564 81.4088 83.9525C80.9428 83.7804 80.6236 83.3454 80.5832 82.8504L80.0237 75.9935L87.5643 74.2959Z" fill="url(#paint2_linear_1_565)"/>
<path d="M73.7458 67.9214C73.7458 67.9214 74.9061 76.0805 78.0403 78.5896C81.1745 81.0987 87.281 79.2095 89.3435 73.0585L85.234 62.5415L73.7458 67.9214Z" fill="url(#paint3_linear_1_565)"/>
<path d="M85.6967 69.3472C85.4583 69.4241 85.2087 69.2713 85.1715 69.0236C85.0583 68.2704 84.776 66.7799 84.2041 65.7646C84.2041 65.7646 84.5033 64.6941 81.4988 66.3112C78.4944 67.9282 73.9819 70.3037 71.325 68.8892C68.7348 67.51 66.111 60.5694 72.9567 61.8553C73.2171 61.9043 73.4566 61.6967 73.4372 61.4324C73.3531 60.2916 73.4662 57.6673 76.1238 56.825C78.6108 56.0367 79.9723 57.1593 80.5333 57.837C80.6984 58.0364 81.0047 58.0324 81.1621 57.8269C81.9072 56.8543 83.9304 54.7841 86.9089 56.0967C89.362 57.1779 89.7436 58.6889 89.7032 59.6305C89.69 59.9356 89.9996 60.1424 90.277 60.0146C91.0282 59.6685 92.2367 59.4887 93.3944 60.9392C94.9949 62.9445 92.7078 64.6834 92.0217 65.1393C91.9093 65.214 91.8394 65.3378 91.8386 65.4728C91.8321 66.5157 91.6697 71.0645 89.3899 73.6305C89.1924 73.8526 88.8276 73.7875 88.7126 73.5134L86.9572 69.3309C86.8757 69.1367 86.6591 69.0372 86.4586 69.1018L85.6967 69.3472Z" fill="black"/>
<path d="M85.6598 70.196C85.6598 70.196 86.7318 65.83 88.3601 67.2475C89.9885 68.665 87.9356 71.7851 86.0702 72.3797L85.6598 70.196Z" fill="url(#paint4_linear_1_565)"/>
<path d="M45.091 124.011L37.1411 97.4985C36.8169 96.4169 35.8559 95.6495 34.7295 95.5726L23.9961 94.8382C22.9051 94.7635 22.0935 95.8292 22.4558 96.8611L31.343 122.18C31.6294 122.995 32.3616 123.572 33.2217 123.659L43.7912 124.833L45.091 124.011Z" fill="#252762"/>
<path d="M30.4293 106.484C31.0229 107.682 32.0479 108.384 32.7187 108.051C33.3896 107.719 33.4523 106.479 32.8588 105.28C32.2652 104.082 31.2403 103.38 30.5694 103.713C29.8986 104.045 29.8358 105.286 30.4293 106.484Z" fill="#8395D7"/>
<path d="M43.7914 124.832C43.8086 124.832 43.8259 124.832 43.8432 124.831L66.3646 123.693C66.9213 123.665 67.3498 123.19 67.3217 122.634C67.2936 122.077 66.8174 121.639 66.2626 121.677L43.7412 122.815C43.1845 122.843 42.756 123.317 42.7841 123.874C42.8114 124.413 43.2573 124.832 43.7914 124.832Z" fill="url(#paint5_linear_1_565)"/>
<path d="M71.0299 102.035C70.9439 102.035 70.8741 101.965 70.8738 101.879C70.8581 97.1248 72.6875 90.8329 72.706 90.7698C72.7302 90.6874 72.8166 90.6399 72.8997 90.664C72.9825 90.6881 73.0299 90.775 73.0056 90.8576C72.9871 90.9201 71.1703 97.1697 71.1859 101.878C71.1862 101.964 71.1166 102.034 71.0303 102.035H71.0299Z" fill="url(#paint6_linear_1_565)"/>
<path d="M81.2722 104.347C81.2384 104.347 81.2042 104.336 81.1756 104.313C81.1081 104.26 81.0965 104.162 81.1498 104.094C81.199 104.032 86.0943 97.8085 87.7698 93.5628C87.8013 93.4826 87.8914 93.4418 87.9724 93.475C88.0526 93.5067 88.0919 93.5972 88.0603 93.6774C86.3678 97.9658 81.4445 104.225 81.395 104.287C81.3641 104.326 81.3184 104.347 81.2722 104.347Z" fill="url(#paint7_linear_1_565)"/>
<path d="M88.2117 113.915L87.321 112.656C87.2712 112.585 87.2879 112.488 87.3584 112.438C87.4285 112.388 87.526 112.405 87.5759 112.475L88.3205 113.528C95.2667 110.483 99.567 102.173 99.6098 102.089C99.6489 102.013 99.7426 101.982 99.8198 102.021C99.8965 102.06 99.927 102.154 99.8879 102.231C99.8443 102.317 95.4469 110.817 88.3278 113.865L88.2117 113.915Z" fill="url(#paint8_linear_1_565)"/>
<defs>
<linearGradient id="paint0_linear_1_565" x1="49.876" y1="102.912" x2="64.8151" y2="120.677" gradientUnits="userSpaceOnUse">
<stop stop-color="#FEBBBA"/>
<stop offset="1" stop-color="#FF928E"/>
</linearGradient>
<linearGradient id="paint1_linear_1_565" x1="67.2956" y1="119.076" x2="37.4347" y2="78.2244" gradientUnits="userSpaceOnUse">
<stop stop-color="#FEBBBA"/>
<stop offset="1" stop-color="#FF928E"/>
</linearGradient>
<linearGradient id="paint2_linear_1_565" x1="85.5623" y1="85.2228" x2="84.4624" y2="75.3236" gradientUnits="userSpaceOnUse">
<stop stop-color="#FEBBBA"/>
<stop offset="1" stop-color="#FF928E"/>
</linearGradient>
<linearGradient id="paint3_linear_1_565" x1="79.6959" y1="76.5876" x2="84.544" y2="60.5976" gradientUnits="userSpaceOnUse">
<stop stop-color="#FEBBBA"/>
<stop offset="1" stop-color="#FF928E"/>
</linearGradient>
<linearGradient id="paint4_linear_1_565" x1="84.7174" y1="78.1098" x2="89.5654" y2="62.1199" gradientUnits="userSpaceOnUse">
<stop stop-color="#FEBBBA"/>
<stop offset="1" stop-color="#FF928E"/>
</linearGradient>
<linearGradient id="paint5_linear_1_565" x1="42.3332" y1="119.766" x2="60.5023" y2="124.746" gradientUnits="userSpaceOnUse">
<stop stop-color="#09005D"/>
<stop offset="1" stop-color="#1A0F91"/>
</linearGradient>
<linearGradient id="paint6_linear_1_565" x1="75.9665" y1="34.0151" x2="68.9429" y2="142.178" gradientUnits="userSpaceOnUse">
<stop stop-color="#E1473D"/>
<stop offset="1" stop-color="#E9605A"/>
</linearGradient>
<linearGradient id="paint7_linear_1_565" x1="88.7535" y1="34.8452" x2="81.7299" y2="143.008" gradientUnits="userSpaceOnUse">
<stop stop-color="#E1473D"/>
<stop offset="1" stop-color="#E9605A"/>
</linearGradient>
<linearGradient id="paint8_linear_1_565" x1="98.2675" y1="35.4628" x2="91.2439" y2="143.626" gradientUnits="userSpaceOnUse">
<stop stop-color="#E1473D"/>
<stop offset="1" stop-color="#E9605A"/>
</linearGradient>
</defs>
</svg>
